<svg id="svg-sciencelogic-logo-reverse" xmlns="http://www.w3.org/2000/svg" viewBox="0 0 512 105.404"><defs><style>.cls-1{fill:#fff;}.cls-2{fill:#fabf1b;}.cls-3{fill:#52b749;}.cls-4{fill:#3298d4;}</style></defs><title>sciencelogic-logo-reverse-rgb</title><g id="svg-sciencelogic-logo-reverse-group"><g id="svg-sciencelogic-logotype"><path class="cls-1" d="M133.829,38.924c-2.159-3.624-4.934-5.475-9.33-5.475-4.626,0-9.716,3.161-9.716,8.25,0,4.548,4.472,6.94,8.1,8.329l4.164,1.619c8.251,3.239,14.42,7.788,14.42,17.5,0,10.566-8.174,18.12-18.584,18.12-9.407,0-16.733-6.939-17.966-16.27l7.325-1.541c-0.077,6.4,5.013,11.026,11.258,11.026s10.718-5.241,10.718-11.334c0-6.245-5.011-8.946-10.024-11.027l-4.01-1.695c-6.632-2.854-12.646-6.633-12.646-14.729,0-9.407,8.328-15.036,17.119-15.036a16.585,16.585,0,0,1,14.959,8.79Z" transform="translate(0 -1.298)"/><path class="cls-1" d="M175.153,60.2a13.243,13.243,0,0,0-10.332-4.857c-6.786,0-12.029,6.016-12.029,12.644,0,7.4,5.166,12.8,12.491,12.8a12.969,12.969,0,0,0,9.869-4.779v8.867a20.166,20.166,0,0,1-9.947,2.39c-10.641,0-19.354-8.172-19.354-18.968,0-11.182,8.636-19.431,19.741-19.431a19.555,19.555,0,0,1,9.56,2.39V60.2Z" transform="translate(0 -1.298)"/><path class="cls-1" d="M192.422,33.449a4.782,4.782,0,0,1-9.562,0A4.782,4.782,0,1,1,192.422,33.449Zm-1.31,52.587h-6.941V49.951h6.941V86.036Z" transform="translate(0 -1.298)"/><path class="cls-1" d="M206.377,69.15c0.077,6.167,4.24,11.953,10.873,11.953,5.32,0,8.173-2.7,10.8-7.018L233.9,77.4a18.769,18.769,0,0,1-16.732,9.87c-11.026,0-17.734-8.327-17.734-18.968,0-11.1,5.938-19.431,17.581-19.431,11.488,0,16.885,8.482,16.885,19.2v1.08H206.377Zm20.589-5.243c-0.849-5.4-4.4-9.022-9.947-9.022a10.326,10.326,0,0,0-10.256,9.022h20.2Z" transform="translate(0 -1.298)"/><path class="cls-1" d="M246.776,54.808h0.155A12.317,12.317,0,0,1,257.8,48.87c10.178,0,12.8,6.861,12.8,15.653V86.036h-6.94V65.372c0-6.17-.848-10.332-7.942-10.332-8.945,0-8.945,7.865-8.945,14.418V86.036h-6.939V49.951h6.939v4.857Z" transform="translate(0 -1.298)"/><path class="cls-1" d="M306.685,60.2a13.243,13.243,0,0,0-10.332-4.857c-6.786,0-12.028,6.016-12.028,12.644,0,7.4,5.166,12.8,12.491,12.8a12.968,12.968,0,0,0,9.869-4.779v8.867a20.167,20.167,0,0,1-9.946,2.39c-10.642,0-19.354-8.172-19.354-18.968,0-11.182,8.635-19.431,19.74-19.431a19.557,19.557,0,0,1,9.56,2.39V60.2Z" transform="translate(0 -1.298)"/><path class="cls-1" d="M318.325,69.15C318.4,75.317,322.566,81.1,329.2,81.1c5.32,0,8.174-2.7,10.794-7.018l5.86,3.315a18.769,18.769,0,0,1-16.732,9.87c-11.026,0-17.735-8.327-17.735-18.968,0-11.1,5.938-19.431,17.582-19.431,11.488,0,16.885,8.482,16.885,19.2v1.08H318.325Zm20.588-5.243c-0.849-5.4-4.4-9.022-9.947-9.022a10.326,10.326,0,0,0-10.256,9.022h20.2Z" transform="translate(0 -1.298)"/><path class="cls-1" d="M359.8,79.4h17.658v6.632H352.556V27.9H359.8V79.4Z" transform="translate(0 -1.298)"/><path class="cls-1" d="M416.784,68.07a19.278,19.278,0,1,1-19.277-19.2A18.977,18.977,0,0,1,416.784,68.07Zm-31.614,0A12.339,12.339,0,1,0,397.507,55.5,12.522,12.522,0,0,0,385.17,68.07Z" transform="translate(0 -1.298)"/><path class="cls-1" d="M456.876,85.342c0,12.415-3.548,21.36-17.58,21.36-10.025,0-17.272-6.171-17.428-16.348h6.94c0,6.478,4.472,10.177,10.794,10.177,8.561,0,10.334-5.859,10.334-13.262V80.407h-0.153a14.894,14.894,0,0,1-12.262,6.863c-11.1,0-17.272-9.174-17.272-19.508,0-9.869,6.555-18.891,16.965-18.891,5.4,0,9.715,2.776,12.569,7.247h0.153V49.951h6.94V85.342Zm-6.555-17.35c0-7.015-4.24-12.951-11.72-12.951-7.17,0-11.413,6.245-11.413,12.951,0,6.789,4.088,13.111,11.413,13.111C446.158,81.1,450.321,75.086,450.321,67.991Z" transform="translate(0 -1.298)"/><path class="cls-1" d="M475.687,33.449a4.782,4.782,0,0,1-9.563,0A4.782,4.782,0,1,1,475.687,33.449Zm-1.314,52.587h-6.939V49.951h6.939V86.036Z" transform="translate(0 -1.298)"/><path class="cls-1" d="M512,60.2a13.24,13.24,0,0,0-10.332-4.857c-6.785,0-12.028,6.016-12.028,12.644,0,7.4,5.165,12.8,12.491,12.8A12.965,12.965,0,0,0,512,76.012v8.867a20.161,20.161,0,0,1-9.947,2.39C491.413,87.269,482.7,79.1,482.7,68.3c0-11.182,8.636-19.431,19.74-19.431A19.552,19.552,0,0,1,512,51.26V60.2Z" transform="translate(0 -1.298)"/></g><g id="svg-sciencelogic-symbol"><g id="svg-sciencelogic-symbol-yellow-group"><circle id="_Path_" data-name="&lt;Path&gt;" class="cls-2" cx="5.279" cy="80.633" r="5.281"/><circle id="_Path_2" data-name="&lt;Path&gt;" class="cls-2" cx="19.816" cy="80.633" r="5.281"/><path id="_Path_3" data-name="&lt;Path&gt;" class="cls-2" d="M14.534,69.371a5.28,5.28,0,1,1,5.283,5.285A5.284,5.284,0,0,1,14.534,69.371Z" transform="translate(0 -1.298)"/><circle id="_Path_4" data-name="&lt;Path&gt;" class="cls-2" cx="19.816" cy="55.517" r="5.28"/></g><g id="svg-sciencelogic-symbol-green-group"><circle id="_Path_5" data-name="&lt;Path&gt;" class="cls-3" cx="48.884" cy="80.633" r="5.281"/><path id="_Path_6" data-name="&lt;Path&gt;" class="cls-3" d="M43.6,69.371a5.281,5.281,0,1,1,5.28,5.285A5.28,5.28,0,0,1,43.6,69.371Z" transform="translate(0 -1.298)"/><path id="_Path_7" data-name="&lt;Path&gt;" class="cls-3" d="M63.419,87.209A5.281,5.281,0,1,1,68.7,81.933,5.284,5.284,0,0,1,63.419,87.209Z" transform="translate(0 -1.298)"/><path id="_Path_8" data-name="&lt;Path&gt;" class="cls-3" d="M58.137,69.371a5.283,5.283,0,1,1,5.281,5.285A5.286,5.286,0,0,1,58.137,69.371Z" transform="translate(0 -1.298)"/><path id="_Path_9" data-name="&lt;Path&gt;" class="cls-3" d="M63.419,62.1A5.283,5.283,0,1,1,68.7,56.817,5.286,5.286,0,0,1,63.419,62.1Z" transform="translate(0 -1.298)"/><path id="_Path_10" data-name="&lt;Path&gt;" class="cls-3" d="M34.351,87.209a5.281,5.281,0,1,1,5.283-5.276A5.275,5.275,0,0,1,34.351,87.209Z" transform="translate(0 -1.298)"/><path id="_Path_11" data-name="&lt;Path&gt;" class="cls-3" d="M29.069,69.371a5.283,5.283,0,1,1,5.282,5.285A5.277,5.277,0,0,1,29.069,69.371Z" transform="translate(0 -1.298)"/><path id="_Path_12" data-name="&lt;Path&gt;" class="cls-3" d="M34.351,62.1a5.283,5.283,0,1,1,5.283-5.279A5.277,5.277,0,0,1,34.351,62.1Z" transform="translate(0 -1.298)"/><path id="_Path_13" data-name="&lt;Path&gt;" class="cls-3" d="M34.351,49.538a5.28,5.28,0,1,1,5.283-5.278A5.28,5.28,0,0,1,34.351,49.538Z" transform="translate(0 -1.298)"/></g><g id="svg-sciencelogic-symbol-blue-group"><circle id="_Path_14" data-name="&lt;Path&gt;" class="cls-4" cx="77.952" cy="80.633" r="5.281"/><path id="_Path_15" data-name="&lt;Path&gt;" class="cls-4" d="M72.672,69.371a5.281,5.281,0,1,1,5.28,5.285A5.278,5.278,0,0,1,72.672,69.371Z" transform="translate(0 -1.298)"/><circle id="_Path_16" data-name="&lt;Path&gt;" class="cls-4" cx="77.952" cy="55.517" r="5.281"/><path id="_Path_17" data-name="&lt;Path&gt;" class="cls-4" d="M77.952,49.538a5.28,5.28,0,1,1,5.281-5.278A5.281,5.281,0,0,1,77.952,49.538Z" transform="translate(0 -1.298)"/><circle id="_Path_18" data-name="&lt;Path&gt;" class="cls-4" cx="77.952" cy="30.4" r="5.281"/><path id="_Path_19" data-name="&lt;Path&gt;" class="cls-4" d="M97.769,81.933a5.281,5.281,0,1,1-5.28-5.285A5.275,5.275,0,0,1,97.769,81.933Z" transform="translate(0 -1.298)"/><path id="_Path_20" data-name="&lt;Path&gt;" class="cls-4" d="M92.488,74.656a5.281,5.281,0,1,1,5.28-5.285A5.284,5.284,0,0,1,92.488,74.656Z" transform="translate(0 -1.298)"/><path id="_Path_21" data-name="&lt;Path&gt;" class="cls-4" d="M92.488,62.1a5.283,5.283,0,1,1,5.28-5.279A5.283,5.283,0,0,1,92.488,62.1Z" transform="translate(0 -1.298)"/><path id="_Path_22" data-name="&lt;Path&gt;" class="cls-4" d="M92.488,49.538a5.28,5.28,0,1,1,5.28-5.278A5.286,5.286,0,0,1,92.488,49.538Z" transform="translate(0 -1.298)"/><path id="_Path_23" data-name="&lt;Path&gt;" class="cls-4" d="M92.488,36.98a5.283,5.283,0,1,1,5.28-5.281A5.286,5.286,0,0,1,92.488,36.98Z" transform="translate(0 -1.298)"/><path id="_Path_24" data-name="&lt;Path&gt;" class="cls-4" d="M92.488,24.422a5.281,5.281,0,1,1,5.28-5.281A5.283,5.283,0,0,1,92.488,24.422Z" transform="translate(0 -1.298)"/><path id="_Path_25" data-name="&lt;Path&gt;" class="cls-4" d="M97.769,6.577A5.281,5.281,0,1,1,92.488,1.3,5.278,5.278,0,0,1,97.769,6.577Z" transform="translate(0 -1.298)"/></g></g></g></svg>